# xmcd CD database file
#
# Track frame offsets:
#	150
#	21510
#	43339
#	71531
#	92000
#	113802
#	132093
#	149567
#	171635
#	192199
#	215274
#	231250
#	246358
#	264570
#	285202
#
# Disc length: 4176 seconds
#
# Revision: 0
# Processed by: cddbd v1.5.2PL0 Copyright (c) Steve Scherf et al.
# Submitted via: CDex 1.51
#
DISCID=e6104e0f
DTITLE=Various Artist - Fingerlakes Music Sampler
DYEAR=2004
DGENRE=New Age
TTITLE0=Scott B. Adams - Seneca Solstice
TTITLE1=Jeff Sawyer - Crusiing
TTITLE2=ESP - Just One Moment
TTITLE3=Dan Duggan - Thread The Needle and New-Made Quilt
TTITLE4=Mectapus - The River
TTITLE5=Zela Zola - Tip Of The Hat
TTITLE6=Jeff Sawyer - Cedar River
TTITLE7=Scott B. Adams - Allegheny Sunrise
TTITLE8=Dan Duggan - Kracklin Stovepipe and Dodridge County
TTITLE9=ESP - Sebastian
TTITLE10=Jeff Sawyer - Eternal Optimist
TTITLE11=Scott B. Adams - McIntyre Mine
TTITLE12=Zela Zola - Seasons Change
TTITLE13=Dan Duggan - Last Of May
TTITLE14=Mectapus - Ka Folike
EXTD=YEAR: 2004
EXTT0=
EXTT1=
EXTT2=
EXTT3=
EXTT4=
EXTT5=
EXTT6=
EXTT7=
EXTT8=
EXTT9=
EXTT10=
EXTT11=
EXTT12=
EXTT13=
EXTT14=
PLAYORDER=
